{
	"asset":{
		"version":"2.0",
		"generator":"Maxon Cinema 4D 2025.3.1 (#200000219)"
	},
	"scenes":[{
		"nodes":[0]
	}],
	"nodes":[{
		"name":"base_x2",
		"mesh":0,
		"translation":[0.0,
		0.0,
		0.0],
		"rotation":[0.0,
		0.0,
		0.0,
		-1.0],
		"scale":[1.0,
		1.0,
		1.0]
	}],
	"meshes":[{
		"name":"base_x2",
		"primitives":[{
			"attributes":{
				"POSITION":1,
				"NORMAL":2,
				"TEXCOORD_0":3
			},
			"indices":0
		}]
	}],
	"accessors":[{
		"bufferView":0,
		"count":2616,
		"type":"SCALAR",
		"componentType":5123,
		"byteOffset":0,
		"min":[0],
		"max":[2615]
	},
	{
		"bufferView":1,
		"count":2616,
		"type":"VEC3",
		"componentType":5126,
		"byteOffset":0,
		"min":[-0.25,
		-0.03750000149011612,
		-0.25],
		"max":[0.25,
		0.03750000149011612,
		0.25]
	},
	{
		"bufferView":1,
		"count":2616,
		"type":"VEC3",
		"componentType":5126,
		"byteOffset":12,
		"min":[-1.0,
		-1.0,
		-1.0],
		"max":[1.0,
		1.0,
		1.0]
	},
	{
		"bufferView":1,
		"count":2616,
		"type":"VEC2",
		"componentType":5126,
		"byteOffset":24,
		"min":[-0.13899999856948853,
		0.0],
		"max":[1.1390000581741334,
		1.0]
	}],
	"bufferViews":[{
		"buffer":0,
		"byteOffset":0,
		"byteLength":5232,
		"target":34963
	},
	{
		"buffer":0,
		"byteOffset":5232,
		"byteLength":83712,
		"target":34962,
		"byteStride":32
	}],
	"buffers":[{
		"uri":"data:application/octet-stream;base64,",
		"byteLength":88944
	}]
}