{
	"asset":{
		"version":"2.0",
		"generator":""
	},
	"scenes":[{
		"nodes":[0]
	}],
	"nodes":[{
		"name":"Base C",
		"mesh":0
	}],
	"meshes":[{
		"name":"Base C",
		"primitives":[{
			"attributes":{
				"POSITION":1,
				"NORMAL":2
			},
			"indices":0
		}]
	}],
	"accessors":[{
		"bufferView":0,
		"count":528,
		"type":"SCALAR",
		"componentType":5123,
		"byteOffset":0,
		"min":[0],
		"max":[527]
	},
	{
		"bufferView":1,
		"count":528,
		"type":"VEC3",
		"componentType":5126,
		"byteOffset":0,
		"min":[-0.49861395359039309,
		-0.012981679290533066,
		-0.49861180782318118],
		"max":[-0.0013860000763088465,
		-0.0029816797468811275,
		-0.0013828122755512596]
	},
	{
		"bufferView":1,
		"count":528,
		"type":"VEC3",
		"componentType":5126,
		"byteOffset":12,
		"min":[-1.0,
		-1.0,
		-1.0],
		"max":[1.0,
		1.0,
		1.0]
	}],
	"bufferViews":[{
		"buffer":0,
		"byteOffset":0,
		"byteLength":1056,
		"target":34963
	},
	{
		"buffer":0,
		"byteOffset":1056,
		"byteLength":12672,
		"target":34962,
		"byteStride":24
	}],
	"buffers":[{
		"uri":"data:application/octet-stream;base64,",
		"byteLength":13728
	}]
}