{
	"buffers":[{
		"uri":"data:application/octet-stream;base64,",
		"byteLength":67680
	}],
	"asset":{
		"version":"2.0",
		"generator":""
	},
	"scenes":[{
		"nodes":[0]
	}],
	"nodes":[{
		"name":"Extrude",
		"mesh":0
	}],
	"meshes":[{
		"name":"Extrude",
		"primitives":[{
			"attributes":{
				"POSITION":1
			},
			"indices":0
		}]
	}],
	"accessors":[{
		"bufferView":0,
		"type":"SCALAR",
		"componentType":5123,
		"count":17022,
		"byteOffset":0,
		"min":[0],
		"max":[2802]
	},
	{
		"bufferView":1,
		"type":"VEC3",
		"componentType":5126,
		"count":2803,
		"byteOffset":0,
		"min":[-0.25,
		0.0,
		-0.0020000000949949028],
		"max":[0.25,
		1.5,
		0.00800000037997961]
	}],
	"bufferViews":[{
		"buffer":0,
		"byteOffset":0,
		"byteLength":34044,
		"target":34963
	},
	{
		"buffer":0,
		"byteOffset":34044,
		"byteLength":33636,
		"target":34962
	}]
}