{
	"buffers":[{
		"uri":"data:application/octet-stream;base64,",
		"byteLength":8076
	}],
	"asset":{
		"version":"2.0",
		"generator":""
	},
	"scenes":[{
		"nodes":[0]
	}],
	"nodes":[{
		"name":"trozo3",
		"mesh":0
	}],
	"meshes":[{
		"name":"trozo3",
		"primitives":[{
			"attributes":{
				"POSITION":1
			},
			"indices":0
		}]
	}],
	"accessors":[{
		"bufferView":0,
		"type":"SCALAR",
		"componentType":5123,
		"count":1980,
		"byteOffset":0,
		"min":[0],
		"max":[342]
	},
	{
		"bufferView":1,
		"type":"VEC3",
		"componentType":5126,
		"count":343,
		"byteOffset":0,
		"min":[-7.105427198782324e-17,
		-3.4738332210793034e-9,
		-0.0010848130332306028],
		"max":[0.49639880657196047,
		1.4999895095825196,
		0.008223598822951317]
	}],
	"bufferViews":[{
		"buffer":0,
		"byteOffset":0,
		"byteLength":3960,
		"target":34963
	},
	{
		"buffer":0,
		"byteOffset":3960,
		"byteLength":4116,
		"target":34962
	}]
}