{
	"buffers":[{
		"uri":"data:application/octet-stream;base64,",
		"byteLength":23244
	}],
	"asset":{
		"version":"2.0",
		"generator":"",
		"copyright":""
	},
	"scenes":[{
		"nodes":[0]
	}],
	"nodes":[{
		"name":"incruas",
		"mesh":0
	}],
	"meshes":[{
		"name":"incruas",
		"primitives":[{
			"attributes":{
				"POSITION":1,
				"NORMAL":2
			},
			"indices":0
		}]
	}],
	"accessors":[{
		"bufferView":0,
		"type":"SCALAR",
		"componentType":5123,
		"count":894,
		"byteOffset":0,
		"min":[0],
		"max":[893]
	},
	{
		"bufferView":1,
		"type":"VEC3",
		"componentType":5126,
		"count":894,
		"byteOffset":0,
		"min":[-0.25,
		-0.004999999888241291,
		-0.25001755356788638],
		"max":[0.25,
		0.004999999888241291,
		0.25001755356788638]
	},
	{
		"bufferView":1,
		"type":"VEC3",
		"componentType":5126,
		"count":894,
		"byteOffset":12,
		"min":[-1.0,
		-1.0,
		-1.0],
		"max":[1.0,
		1.0,
		1.0]
	}],
	"bufferViews":[{
		"buffer":0,
		"byteOffset":0,
		"byteLength":1788,
		"target":34963
	},
	{
		"buffer":0,
		"byteOffset":1788,
		"byteLength":21456,
		"target":34962,
		"byteStride":24
	}]
}