{
	"buffers":[{
		"uri":"data:application/octet-stream;base64,",
		"byteLength":9600
	}],
	"asset":{
		"version":"2.0",
		"generator":""
	},
	"scenes":[{
		"nodes":[0]
	}],
	"nodes":[{
		"name":"pegataslong.1",
		"mesh":0
	}],
	"meshes":[{
		"name":"pegataslong.1",
		"primitives":[{
			"attributes":{
				"POSITION":1
			},
			"indices":0
		}]
	}],
	"accessors":[{
		"bufferView":0,
		"type":"SCALAR",
		"componentType":5123,
		"count":2370,
		"byteOffset":0,
		"min":[0],
		"max":[404]
	},
	{
		"bufferView":1,
		"type":"VEC3",
		"componentType":5126,
		"count":405,
		"byteOffset":0,
		"min":[-0.2500004768371582,
		-6.75981581821361e-9,
		-0.0006314994534477592],
		"max":[0.24279813468456269,
		1.5,
		0.009368500672280789]
	}],
	"bufferViews":[{
		"buffer":0,
		"byteOffset":0,
		"byteLength":4740,
		"target":34963
	},
	{
		"buffer":0,
		"byteOffset":4740,
		"byteLength":4860,
		"target":34962
	}]
}