{
	"buffers":[{
		"uri":"data:application/octet-stream;base64,",
		"byteLength":1224
	}],
	"asset":{
		"version":"2.0",
		"generator":"Maxon Cinema 4D 2025.3.1 (#200000219)",
		"copyright":""
	},
	"scenes":[{
		"nodes":[0]
	}],
	"nodes":[{
		"name":"Scene 0",
		"children":[1]
	},
	{
		"name":"Cube",
		"mesh":0
	}],
	"meshes":[{
		"name":"Cube",
		"primitives":[{
			"attributes":{
				"POSITION":1,
				"NORMAL":2,
				"TEXCOORD_0":3
			},
			"indices":0
		}]
	}],
	"accessors":[{
		"bufferView":0,
		"type":"SCALAR",
		"componentType":5123,
		"count":36,
		"byteOffset":0,
		"min":[0],
		"max":[35]
	},
	{
		"bufferView":1,
		"type":"VEC3",
		"componentType":5126,
		"count":36,
		"byteOffset":0,
		"min":[-0.24500000476837159,
		-0.004999999888241291,
		-0.24500000476837159],
		"max":[0.24500000476837159,
		0.004999999888241291,
		0.24500000476837159]
	},
	{
		"bufferView":1,
		"type":"VEC3",
		"componentType":5126,
		"count":36,
		"byteOffset":12,
		"min":[-1.0,
		-1.0,
		-1.0],
		"max":[1.0,
		1.0,
		1.0]
	},
	{
		"bufferView":1,
		"type":"VEC2",
		"componentType":5126,
		"count":36,
		"byteOffset":24,
		"min":[0.000030517578125,
		0.000030517578125],
		"max":[1.0,
		1.0]
	}],
	"bufferViews":[{
		"buffer":0,
		"byteOffset":0,
		"byteLength":72,
		"target":34963
	},
	{
		"buffer":0,
		"byteOffset":72,
		"byteLength":1152,
		"target":34962,
		"byteStride":32
	}]
}