{
	"buffers":[{
		"uri":"data:application/octet-stream;base64,",
		"byteLength":5928
	}],
	"asset":{
		"version":"2.0",
		"generator":"",
		"copyright":""
	},
	"scenes":[{
		"nodes":[0]
	}],
	"nodes":[{
		"name":"Scene 0",
		"children":[1]
	},
	{
		"name":"Base C",
		"mesh":0
	}],
	"meshes":[{
		"name":"Base C",
		"primitives":[{
			"attributes":{
				"POSITION":1,
				"NORMAL":2
			},
			"indices":0
		}]
	}],
	"accessors":[{
		"bufferView":0,
		"type":"SCALAR",
		"componentType":5123,
		"count":228,
		"byteOffset":0,
		"min":[0],
		"max":[227]
	},
	{
		"bufferView":1,
		"type":"VEC3",
		"componentType":5126,
		"count":228,
		"byteOffset":0,
		"min":[-0.24826787412166596,
		-0.00499841058626771,
		-0.24861165881156922],
		"max":[0.24826787412166596,
		0.00499841058626771,
		0.24861165881156922]
	},
	{
		"bufferView":1,
		"type":"VEC3",
		"componentType":5126,
		"count":228,
		"byteOffset":12,
		"min":[-1.0,
		-1.0,
		-1.0],
		"max":[1.0,
		1.0,
		1.0]
	}],
	"bufferViews":[{
		"buffer":0,
		"byteOffset":0,
		"byteLength":456,
		"target":34963
	},
	{
		"buffer":0,
		"byteOffset":456,
		"byteLength":5472,
		"target":34962,
		"byteStride":24
	}]
}