{
	"buffers":[{
		"uri":"data:application/octet-stream;base64,",
		"byteLength":13728
	}],
	"asset":{
		"version":"2.0",
		"generator":"",
		"copyright":""
	},
	"scenes":[{
		"nodes":[0]
	}],
	"nodes":[{
		"name":"Scene 0",
		"children":[1]
	},
	{
		"name":"Base C",
		"mesh":0
	}],
	"meshes":[{
		"name":"Base C",
		"primitives":[{
			"attributes":{
				"POSITION":1,
				"NORMAL":2
			},
			"indices":0
		}]
	}],
	"accessors":[{
		"bufferView":0,
		"type":"SCALAR",
		"componentType":5123,
		"count":528,
		"byteOffset":0,
		"min":[0],
		"max":[527]
	},
	{
		"bufferView":1,
		"type":"VEC3",
		"componentType":5126,
		"count":528,
		"byteOffset":0,
		"min":[-0.24861398339271546,
		-0.004999999888241291,
		-0.24861450493335725],
		"max":[0.24861398339271546,
		0.004999999888241291,
		0.24861450493335725]
	},
	{
		"bufferView":1,
		"type":"VEC3",
		"componentType":5126,
		"count":528,
		"byteOffset":12,
		"min":[-1.0,
		-1.0,
		-1.0],
		"max":[1.0,
		1.0,
		1.0]
	}],
	"bufferViews":[{
		"buffer":0,
		"byteOffset":0,
		"byteLength":1056,
		"target":34963
	},
	{
		"buffer":0,
		"byteOffset":1056,
		"byteLength":12672,
		"target":34962,
		"byteStride":24
	}]
}