{
	"buffers":[{
		"uri":"data:application/octet-stream;base64,",
		"byteLength":165344
	}],
	"asset":{
		"version":"2.0",
		"generator":"",
		"copyright":""
	},
	"scenes":[{
		"nodes":[0]
	}],
	"nodes":[{
		"name":"Scene 0",
		"mesh":0
	}],
	"meshes":[{
		"name":"Scene 0",
		"primitives":[{
			"attributes":{
				"POSITION":1,
				"NORMAL":2,
				"TEXCOORD_0":3
			},
			"indices":0
		}]
	}],
	"accessors":[{
		"bufferView":0,
		"type":"SCALAR",
		"componentType":5123,
		"count":4863,
		"byteOffset":0,
		"min":[0],
		"max":[4862]
	},
	{
		"bufferView":1,
		"type":"VEC3",
		"componentType":5126,
		"count":4863,
		"byteOffset":0,
		"min":[-0.24697500467300416,
		-0.004986700601875782,
		-0.2500897943973541],
		"max":[0.24697500467300416,
		0.004986700601875782,
		0.2500897943973541]
	},
	{
		"bufferView":1,
		"type":"VEC3",
		"componentType":5126,
		"count":4863,
		"byteOffset":12,
		"min":[-1.0,
		-1.0,
		-1.0],
		"max":[1.0,
		1.0,
		1.0]
	},
	{
		"bufferView":1,
		"type":"VEC2",
		"componentType":5126,
		"count":4863,
		"byteOffset":24,
		"min":[0.0,
		0.0],
		"max":[1.0,
		1.0]
	}],
	"bufferViews":[{
		"buffer":0,
		"byteOffset":0,
		"byteLength":9726,
		"target":34963
	},
	{
		"buffer":0,
		"byteOffset":9728,
		"byteLength":155616,
		"target":34962,
		"byteStride":32
	}]
}