{
	"buffers":[{
		"uri":"data:application/octet-stream;base64,",
		"byteLength":7532
	},
	{
		"uri":"data:application/octet-stream;base64,",
		"byteLength":1256
	}],
	"asset":{
		"version":"2.0",
		"generator":""
	},
	"scenes":[{
		"nodes":[0,
		1]
	}],
	"nodes":[{
		"name":"trozoaire.1",
		"mesh":0,
		"translation":[-0.25,
		-1.5308085657314599e-17,
		0.25],
		"rotation":[0.7071067690849304,
		0.0,
		0.0,
		-0.7071067690849304],
		"scale":[1.0,
		1.0,
		1.0]
	},
	{
		"name":"trozoaire",
		"mesh":1,
		"translation":[-0.25,
		-1.5308085657314599e-17,
		0.25],
		"rotation":[0.7071067690849304,
		0.0,
		0.0,
		-0.7071067690849304],
		"scale":[1.0,
		1.0,
		1.0]
	}],
	"meshes":[{
		"name":"trozoaire.1",
		"primitives":[{
			"attributes":{
				"POSITION":1
			},
			"indices":0
		}]
	},
	{
		"name":"trozoaire",
		"primitives":[{
			"attributes":{
				"POSITION":3
			},
			"indices":2
		}]
	}],
	"accessors":[{
		"bufferView":0,
		"type":"SCALAR",
		"componentType":5123,
		"count":1731,
		"byteOffset":0,
		"min":[0],
		"max":[338]
	},
	{
		"bufferView":1,
		"type":"VEC3",
		"componentType":5126,
		"count":339,
		"byteOffset":0,
		"min":[-8.881784197001253e-16,
		0.0,
		-0.002312690019607544],
		"max":[0.4349992275238037,
		0.49996453523635867,
		0.009674125351011753]
	},
	{
		"bufferView":2,
		"type":"SCALAR",
		"componentType":5123,
		"count":315,
		"byteOffset":0,
		"min":[0],
		"max":[51]
	},
	{
		"bufferView":3,
		"type":"VEC3",
		"componentType":5126,
		"count":52,
		"byteOffset":0,
		"min":[-8.881784197001253e-16,
		0.0,
		-0.002312690019607544],
		"max":[0.5000095367431641,
		0.5,
		0.009483824484050274]
	}],
	"bufferViews":[{
		"buffer":0,
		"byteOffset":0,
		"byteLength":3462,
		"target":34963
	},
	{
		"buffer":0,
		"byteOffset":3464,
		"byteLength":4068,
		"target":34962
	},
	{
		"buffer":1,
		"byteOffset":0,
		"byteLength":630,
		"target":34963
	},
	{
		"buffer":1,
		"byteOffset":632,
		"byteLength":624,
		"target":34962
	}]
}