{
	"asset":{
		"version":"2.0",
		"generator":""
	},
	"scenes":[{
		"nodes":[0]
	}],
	"nodes":[{
		"name":"Base C",
		"mesh":0,
		"translation":[0.0,
		0.0,
		0.0],
		"rotation":[0.5,
		-0.5,
		0.5,
		-0.5],
		"scale":[1.0,
		1.0,
		1.0]
	}],
	"meshes":[{
		"name":"Base C",
		"primitives":[{
			"attributes":{
				"POSITION":1,
				"NORMAL":2
			},
			"indices":0
		}]
	}],
	"accessors":[{
		"bufferView":0,
		"count":228,
		"type":"SCALAR",
		"componentType":5123,
		"byteOffset":0,
		"min":[0],
		"max":[227]
	},
	{
		"bufferView":1,
		"count":228,
		"type":"VEC3",
		"componentType":5126,
		"byteOffset":0,
		"min":[-0.49861395359039309,
		-0.012981679290533066,
		-0.4986061155796051],
		"max":[-0.0020782018546015026,
		-0.00298485835082829,
		-0.0013828122755512596]
	},
	{
		"bufferView":1,
		"count":228,
		"type":"VEC3",
		"componentType":5126,
		"byteOffset":12,
		"min":[-1.0,
		-1.0,
		-1.0],
		"max":[1.0,
		1.0,
		1.0]
	}],
	"bufferViews":[{
		"buffer":0,
		"byteOffset":0,
		"byteLength":456,
		"target":34963
	},
	{
		"buffer":0,
		"byteOffset":456,
		"byteLength":5472,
		"target":34962,
		"byteStride":24
	}],
	"buffers":[{
		"uri":"data:application/octet-stream;base64,",
		"byteLength":5928
	}]
}