<?xml version="1.0" encoding="UTF-8"?>
<svg id="Layer_1" data-name="Layer 1" xmlns="http://www.w3.org/2000/svg" viewBox="0 0 142.73 142.73">
  <defs>
    <style>
      .cls-1 {
        fill: none;
        stroke: #231f20;
        stroke-miterlimit: 10;
      }
    </style>
  </defs>
  <path class="cls-1" d="M21.76,107.22V33.38l.82-.82.31-.31,10.49-10.49h75.97l.69.69,10.93,10.93v75.97l-.82.82-.31.31-10.49,10.49H33.38l-8.8-8.8-.67-.67-1.46-1.46-.69-.69v-2.13M15.24,80.58H7.02v-18.43h8.22v18.43M15.24,97.59v18.43H7.02v-18.43h8.22M26.72,127.49h18.43v8.22h-18.43v-8.22M7.02,45.15v-18.43h8.22v18.43H7.02M.5,122.53l19.7,19.7h102.33l19.7-19.7V20.2L122.53.5H20.2L.5,20.2v102.33M62.15,127.49h18.43v8.22h-18.43v-8.22M97.59,135.71v-8.22h18.43v8.22h-18.43M26.72,7.02h18.43v8.22h-18.43V7.02M80.58,7.02v8.22h-18.43V7.02h18.43M127.49,116.01v-18.43h8.22v18.43h-8.22M116.01,7.02v8.22h-18.43V7.02h18.43M135.71,80.58h-8.22v-18.43h8.22v18.43M127.49,45.15v-18.43h8.22v18.43h-8.22"/>
</svg>