<?xml version="1.0" encoding="UTF-8"?>
<svg id="SPLINE" xmlns="http://www.w3.org/2000/svg" version="1.1" viewBox="0 0 38.5 38.5">
  <!-- Generator: Adobe Illustrator 30.3.0, SVG Export Plug-In . SVG Version: 2.1.3 Build 182)  -->
  <path d="M31.05.5H7.45L.5,7.45v23.6l6.95,6.95h23.6l6.95-6.95V7.45L31.05.5ZM5.5,30.19h-2.01v-4.51h2.01v4.51ZM5.5,21.51h-2.01v-4.51h2.01v4.51ZM5.5,10.33v2.5h-2.01v-4.51h2.01v2.01ZM25.67,3.49h4.51v2.01h-4.51v-2.01ZM16.99,3.49h4.51v2.01h-4.51v-2.01ZM8.31,3.49h4.51v2.01h-4.51v-2.01ZM12.83,35.01h-4.51v-2.01h4.51v2.01ZM21.51,35.01h-4.51v-2.01h4.51v2.01ZM30.19,35.01h-4.51v-2.01h4.51v2.01ZM30.5,26.4l-4.1,4.1h-14.3l-4.1-4.2v-14.2l4.1-4.1h14.3l4.1,4.2v14.2ZM35.01,30.19h-2.01v-4.51h2.01v4.51ZM35.01,21.51h-2.01v-4.51h2.01v4.51ZM35.01,12.83h-2.01v-4.51h2.01v4.51Z"/>
</svg>