<svg xmlns="http://www.w3.org/2000/svg" viewBox="0 0 128 200" fill="none">
  <g stroke="#1F2937" stroke-width="4" stroke-linecap="round" stroke-linejoin="round">
    <rect x="22" y="10" width="84" height="180" rx="2"/>
    <rect x="30" y="20" width="40" height="10" rx="2"/>
    <rect x="74" y="20" width="24" height="10" rx="2"/>
    <rect x="80" y="23" width="12" height="4" rx="2"/>
    <path d="M34 38 H94 L84 96 H44 Z"/>
    <rect x="52" y="50" width="4" height="12" rx="2"/>
    <rect x="60" y="50" width="4" height="12" rx="2"/>
    <rect x="68" y="50" width="4" height="12" rx="2"/>
    <path d="M44 104 H84 L94 168 H34 Z"/>
    <rect x="76" y="150" width="4" height="12" rx="2"/>
    <rect x="84" y="150" width="4" height="12" rx="2"/>
    <rect x="92" y="150" width="4" height="12" rx="2"/>
    <rect x="30" y="172" width="24" height="10" rx="2"/>
    <rect x="58" y="172" width="40" height="10" rx="2"/>
    <rect x="38" y="175" width="12" height="4" rx="2"/>

  </g>
</svg>
