<svg xmlns="http://www.w3.org/2000/svg" viewBox="0 0 128 200" fill="none">
  <g stroke="#1F2937" stroke-width="4" stroke-linecap="round" stroke-linejoin="round">
    <rect x="20" y="10" width="88" height="180" rx="2"/>
    <rect x="30" y="20" width="10" height="28" rx="5"/>
    <rect x="88" y="20" width="10" height="28" rx="5"/>
    <rect x="30" y="55" width="10" height="28" rx="5"/>
    <rect x="88" y="55" width="10" height="28" rx="5"/>
    <rect x="30" y="90" width="10" height="28" rx="5"/>
    <rect x="88" y="90" width="10" height="28" rx="5"/>
    <rect x="30" y="125" width="10" height="28" rx="5"/>
    <rect x="88" y="125" width="10" height="28" rx="5"/>
    <rect x="30" y="160" width="10" height="28" rx="5"/>
    <rect x="88" y="160" width="10" height="28" rx="5"/>
    <rect x="56" y="20" width="10" height="28" rx="5"/>
    <rect x="56" y="55" width="10" height="28" rx="5"/>
    <rect x="56" y="90" width="10" height="28" rx="5"/>
    <rect x="56" y="125" width="10" height="28" rx="5"/>
    <rect x="56" y="160" width="10" height="28" rx="5"/>
    <rect x="72" y="37" width="10" height="28" rx="5"/>
    <rect x="72" y="72" width="10" height="28" rx="5"/>
    <rect x="72" y="107" width="10" height="28" rx="5"/>
    <rect x="72" y="142" width="10" height="28" rx="5"/>

  </g>
</svg>
